<mxfile host="app.diagrams.net" modified="2022-11-25T00:32:55.828Z" agent="5.0 (Macintosh; Intel Mac OS X 10_15_7) AppleWebKit/537.36 (KHTML, like Gecko) Chrome/107.0.0.0 Safari/537.36" etag="kJvHyiAUB8k4HZ39VmDZ" version="20.5.3" type="github">
  <diagram name="Page-1" id="e56a1550-8fbb-45ad-956c-1786394a9013">
    <mxGraphModel dx="818" dy="478" grid="1" gridSize="10" guides="1" tooltips="1" connect="1" arrows="1" fold="1" page="1" pageScale="1" pageWidth="1100" pageHeight="850" background="none" math="0" shadow="0">
      <root>
        <mxCell id="0" />
        <mxCell id="1" parent="0" />
        <mxCell id="XMdufiBDT5L7ZlWeHKmG-1" value="Dining Menu" style="swimlane;fontStyle=0;childLayout=stackLayout;horizontal=1;startSize=26;horizontalStack=0;resizeParent=1;resizeParentMax=0;resizeLast=0;collapsible=1;marginBottom=0;align=center;fontSize=14;" vertex="1" parent="1">
          <mxGeometry x="40" y="40" width="220" height="210" as="geometry" />
        </mxCell>
        <mxCell id="XMdufiBDT5L7ZlWeHKmG-2" value="title" style="text;strokeColor=none;fillColor=none;spacingLeft=4;spacingRight=4;overflow=hidden;rotatable=0;points=[[0,0.5],[1,0.5]];portConstraint=eastwest;fontSize=12;" vertex="1" parent="XMdufiBDT5L7ZlWeHKmG-1">
          <mxGeometry y="26" width="220" height="30" as="geometry" />
        </mxCell>
        <mxCell id="XMdufiBDT5L7ZlWeHKmG-3" value="scheduler_settings" style="text;strokeColor=none;fillColor=none;spacingLeft=4;spacingRight=4;overflow=hidden;rotatable=0;points=[[0,0.5],[1,0.5]];portConstraint=eastwest;fontSize=12;" vertex="1" parent="XMdufiBDT5L7ZlWeHKmG-1">
          <mxGeometry y="56" width="220" height="30" as="geometry" />
        </mxCell>
        <mxCell id="XMdufiBDT5L7ZlWeHKmG-4" value="body" style="text;strokeColor=none;fillColor=none;spacingLeft=4;spacingRight=4;overflow=hidden;rotatable=0;points=[[0,0.5],[1,0.5]];portConstraint=eastwest;fontSize=12;" vertex="1" parent="XMdufiBDT5L7ZlWeHKmG-1">
          <mxGeometry y="86" width="220" height="34" as="geometry" />
        </mxCell>
        <mxCell id="XMdufiBDT5L7ZlWeHKmG-15" value="field_venue_reference" style="text;strokeColor=none;fillColor=none;spacingLeft=4;spacingRight=4;overflow=hidden;rotatable=0;points=[[0,0.5],[1,0.5]];portConstraint=eastwest;fontSize=12;" vertex="1" parent="XMdufiBDT5L7ZlWeHKmG-1">
          <mxGeometry y="120" width="220" height="30" as="geometry" />
        </mxCell>
        <mxCell id="XMdufiBDT5L7ZlWeHKmG-19" value="field_complete_menu_tab (Field Collection)" style="text;strokeColor=none;fillColor=none;spacingLeft=4;spacingRight=4;overflow=hidden;rotatable=0;points=[[0,0.5],[1,0.5]];portConstraint=eastwest;fontSize=12;" vertex="1" parent="XMdufiBDT5L7ZlWeHKmG-1">
          <mxGeometry y="150" width="220" height="30" as="geometry" />
        </mxCell>
        <mxCell id="XMdufiBDT5L7ZlWeHKmG-20" value="path" style="text;strokeColor=none;fillColor=none;spacingLeft=4;spacingRight=4;overflow=hidden;rotatable=0;points=[[0,0.5],[1,0.5]];portConstraint=eastwest;fontSize=12;" vertex="1" parent="XMdufiBDT5L7ZlWeHKmG-1">
          <mxGeometry y="180" width="220" height="30" as="geometry" />
        </mxCell>
        <mxCell id="XMdufiBDT5L7ZlWeHKmG-9" value="&lt;div data-ccp-timestamp=&quot;1669177401036&quot;&gt;&lt;table style=&quot;border-collapse:collapse;width:154pt&quot; width=&quot;205&quot;&gt;&lt;colgroup&gt;&lt;col style=&quot;width:154pt&quot; width=&quot;205&quot;&gt;&lt;/colgroup&gt;&lt;tbody&gt;&lt;tr style=&quot;height:15.0pt&quot; height=&quot;20&quot;&gt;&lt;td style=&quot;height:15.0pt&quot; height=&quot;20&quot;&gt;&lt;br&gt;&lt;/td&gt;&lt;/tr&gt;&lt;tr style=&quot;height:15.0pt&quot; height=&quot;20&quot;&gt;&lt;td style=&quot;height:15.0pt&quot; height=&quot;20&quot;&gt;&lt;br&gt;&lt;/td&gt;&lt;/tr&gt;&lt;/tbody&gt;&lt;/table&gt;&lt;/div&gt;" style="text;whiteSpace=wrap;html=1;" vertex="1" parent="1">
          <mxGeometry x="220" y="660" width="240" height="220" as="geometry" />
        </mxCell>
        <mxCell id="XMdufiBDT5L7ZlWeHKmG-21" value="Menu Tab - Field Collection" style="swimlane;fontStyle=0;childLayout=stackLayout;horizontal=1;startSize=26;horizontalStack=0;resizeParent=1;resizeParentMax=0;resizeLast=0;collapsible=1;marginBottom=0;align=center;fontSize=14;" vertex="1" parent="1">
          <mxGeometry x="360" y="120" width="230" height="86" as="geometry" />
        </mxCell>
        <mxCell id="XMdufiBDT5L7ZlWeHKmG-22" value="field_tab_label" style="text;strokeColor=none;fillColor=none;spacingLeft=4;spacingRight=4;overflow=hidden;rotatable=0;points=[[0,0.5],[1,0.5]];portConstraint=eastwest;fontSize=12;" vertex="1" parent="XMdufiBDT5L7ZlWeHKmG-21">
          <mxGeometry y="26" width="230" height="30" as="geometry" />
        </mxCell>
        <mxCell id="XMdufiBDT5L7ZlWeHKmG-23" value="field_generic_tab_paragraphs" style="text;strokeColor=none;fillColor=none;spacingLeft=4;spacingRight=4;overflow=hidden;rotatable=0;points=[[0,0.5],[1,0.5]];portConstraint=eastwest;fontSize=12;" vertex="1" parent="XMdufiBDT5L7ZlWeHKmG-21">
          <mxGeometry y="56" width="230" height="30" as="geometry" />
        </mxCell>
        <mxCell id="XMdufiBDT5L7ZlWeHKmG-30" style="edgeStyle=orthogonalEdgeStyle;rounded=0;orthogonalLoop=1;jettySize=auto;html=1;exitX=1;exitY=0.5;exitDx=0;exitDy=0;entryX=0.004;entryY=0.174;entryDx=0;entryDy=0;entryPerimeter=0;" edge="1" parent="1" source="XMdufiBDT5L7ZlWeHKmG-15" target="XMdufiBDT5L7ZlWeHKmG-21">
          <mxGeometry relative="1" as="geometry">
            <Array as="points">
              <mxPoint x="260" y="200" />
              <mxPoint x="310" y="200" />
              <mxPoint x="310" y="135" />
            </Array>
          </mxGeometry>
        </mxCell>
        <mxCell id="XMdufiBDT5L7ZlWeHKmG-31" value="Tab - Generic" style="swimlane;fontStyle=0;childLayout=stackLayout;horizontal=1;startSize=26;horizontalStack=0;resizeParent=1;resizeParentMax=0;resizeLast=0;collapsible=1;marginBottom=0;align=center;fontSize=14;" vertex="1" parent="1">
          <mxGeometry x="660" y="230" width="200" height="86" as="geometry" />
        </mxCell>
        <mxCell id="XMdufiBDT5L7ZlWeHKmG-32" value="field_home_of_entertainmen_color" style="text;strokeColor=none;fillColor=none;spacingLeft=4;spacingRight=4;overflow=hidden;rotatable=0;points=[[0,0.5],[1,0.5]];portConstraint=eastwest;fontSize=12;" vertex="1" parent="XMdufiBDT5L7ZlWeHKmG-31">
          <mxGeometry y="26" width="200" height="30" as="geometry" />
        </mxCell>
        <mxCell id="XMdufiBDT5L7ZlWeHKmG-33" value="field_generic_tabs (field Collection)" style="text;strokeColor=none;fillColor=none;spacingLeft=4;spacingRight=4;overflow=hidden;rotatable=0;points=[[0,0.5],[1,0.5]];portConstraint=eastwest;fontSize=12;" vertex="1" parent="XMdufiBDT5L7ZlWeHKmG-31">
          <mxGeometry y="56" width="200" height="30" as="geometry" />
        </mxCell>
        <mxCell id="XMdufiBDT5L7ZlWeHKmG-35" style="edgeStyle=orthogonalEdgeStyle;rounded=0;orthogonalLoop=1;jettySize=auto;html=1;exitX=1;exitY=0.5;exitDx=0;exitDy=0;entryX=0.09;entryY=-0.017;entryDx=0;entryDy=0;entryPerimeter=0;" edge="1" parent="1" source="XMdufiBDT5L7ZlWeHKmG-23" target="XMdufiBDT5L7ZlWeHKmG-31">
          <mxGeometry relative="1" as="geometry" />
        </mxCell>
        <mxCell id="XMdufiBDT5L7ZlWeHKmG-38" value="field_generic_tab_paragraphs" style="swimlane;fontStyle=0;childLayout=stackLayout;horizontal=1;startSize=26;horizontalStack=0;resizeParent=1;resizeParentMax=0;resizeLast=0;collapsible=1;marginBottom=0;align=center;fontSize=14;" vertex="1" parent="1">
          <mxGeometry x="920" y="330" width="270" height="170" as="geometry" />
        </mxCell>
        <mxCell id="XMdufiBDT5L7ZlWeHKmG-39" value="Content Curation - Three Column Grid ListingÂ &#xa;Content -- Two Column -- Text | Text&#xa;Tab - Entityform&#xa;Tab - Gallery&#xa;Tab - Page Paragraphs&#xa;Tab - Menu&#xa;Section - Body&#xa;Section - Heading with body (left aligned)&#xa;Section - Heading with body (center aligned)" style="text;strokeColor=none;fillColor=none;spacingLeft=4;spacingRight=4;overflow=hidden;rotatable=0;points=[[0,0.5],[1,0.5]];portConstraint=eastwest;fontSize=12;" vertex="1" parent="XMdufiBDT5L7ZlWeHKmG-38">
          <mxGeometry y="26" width="270" height="144" as="geometry" />
        </mxCell>
        <mxCell id="XMdufiBDT5L7ZlWeHKmG-42" style="edgeStyle=orthogonalEdgeStyle;rounded=0;orthogonalLoop=1;jettySize=auto;html=1;exitX=1;exitY=0.5;exitDx=0;exitDy=0;entryX=0.137;entryY=-0.013;entryDx=0;entryDy=0;entryPerimeter=0;" edge="1" parent="1" source="XMdufiBDT5L7ZlWeHKmG-33" target="XMdufiBDT5L7ZlWeHKmG-38">
          <mxGeometry relative="1" as="geometry" />
        </mxCell>
      </root>
    </mxGraphModel>
  </diagram>
</mxfile>
